<?xml version="1.0" encoding="UTF-8"?>
<svg id="Layer_2" data-name="Layer 2" xmlns="http://www.w3.org/2000/svg" viewBox="0 0 116.63 122.22">
  <defs>
    <style>
      .cls-1 {
        fill: #fff;
      }

      .cls-1, .cls-2, .cls-3 {
        stroke: #000;
        stroke-miterlimit: 10;
      }

      .cls-2 {
        fill: red;
      }
    </style>
  </defs>
  <g id="Layer_1-2" data-name="Layer 1">
    <rect class="cls-2" x="41.97" y="33.18" width="7" height="19" transform="translate(-6.08 7.58) rotate(-8.94)"/>
    <polygon class="cls-2" points="19.59 64.77 36.66 38.1 16.82 33.23 19.59 64.77"/>
    <circle class="cls-1" cx="41.98" cy="21.61" r="15.05"/>
    <polygon class="cls-2" points="101.43 67.64 88.26 38.84 108.59 36.8 101.43 67.64"/>
    <path class="cls-2" d="M114.36,108.22l-18.03-15.21c-.52-.44-.51-1.24.02-1.66l8-6.36c.54-.43,1.35-.24,1.64.39l10.02,21.56c.48,1.04-.79,2.01-1.67,1.27Z"/>
    <path class="cls-2" d="M99.75,116.21l-15.81-17.31c-.47-.52-.33-1.34.29-1.67l8.7-4.62c.59-.31,1.32-.02,1.53.62l7.1,21.93c.36,1.1-1.04,1.91-1.81,1.05Z"/>
    <path class="cls-2" d="M79.59,121.04l-8.35-21.19c-.27-.69.22-1.44.95-1.47l9.48-.4c.63-.03,1.15.5,1.12,1.13l-1.13,21.59c-.06,1.15-1.65,1.41-2.07.34Z"/>
    <path class="cls-2" d="M2.27,107.23l18.03-15.21c.52-.44.51-1.24-.02-1.66l-8-6.36c-.54-.43-1.35-.24-1.64.39L.61,105.96c-.48,1.04.79,2.01,1.67,1.27Z"/>
    <path class="cls-2" d="M16.88,115.23l15.81-17.31c.47-.52.33-1.34-.29-1.67l-8.7-4.62c-.59-.31-1.32-.02-1.53.62l-7.1,21.93c-.36,1.1,1.04,1.91,1.81,1.05Z"/>
    <path class="cls-2" d="M37.05,120.06l8.35-21.19c.27-.69-.22-1.44-.95-1.47l-9.48-.4c-.63-.03-1.15.5-1.12,1.13l1.13,21.59c.06,1.15,1.65,1.41,2.07.34Z"/>
    <rect class="cls-2" x="69.71" y="35.1" width="7" height="19" transform="translate(8.74 -11.9) rotate(9.88)"/>
    <path class="cls-2" d="M9.3,82.77c-3.17-14.15,16.16-32.31,35-38,17.83-5.38,32.95,1.1,37,3,15.73,7.4,32.1,24.83,28,37-2.33,6.92-10.65,10.25-20,14-11.45,4.59-21.52,5.02-26.5,5-13.74-.04-49.62-3.67-53.5-21Z"/>
    <circle class="cls-1" cx="76.34" cy="24.1" r="15.05"/>
    <circle cx="83.14" cy="19.03" r="5"/>
    <path class="cls-2" d="M82.68,10.36c1.4-1.9,7.52.13,8.73.53,2.03.67,4.05,1.7,7.78,4.61,7.41,5.79,12.19,9.53,12.07,14.59-.04,1.74-.65,2.92-1.69,4.93-1.33,2.58-5.86,11.33-13.89,11.32-7.36-.01-12.65-7.38-13.84-13.3-.6-3-.63-8.04,1.69-9.12,3.54-1.65,10.48,6.89,11.08,6.34.85-.79-14.55-16.33-11.94-19.9Z"/>
    <circle cx="45.47" cy="16.31" r="5"/>
    <path class="cls-2" d="M47.21,2.32c-1.49-2.67-9.06-1.68-10.55-1.48-2.5.33-5.04,1.09-9.81,3.74-9.48,5.28-15.6,8.69-15.95,14.92-.12,2.15.49,3.73,1.55,6.45,1.35,3.48,5.94,15.31,15.6,17.27,8.85,1.79,15.94-5.94,17.94-12.9,1.01-3.53,1.55-9.69-1.14-11.59-4.1-2.89-13.28,5.88-13.95,5.05-.94-1.17,19.1-16.44,16.3-21.45Z"/>
    <ellipse class="cls-3" cx="59.3" cy="84.1" rx="5.5" ry="4.33"/>
  </g>
</svg>